<?xml version="1.0" encoding="UTF-8" standalone="no"?>
<!DOCTYPE svg PUBLIC "-//W3C//DTD SVG 1.1//EN" "http://www.w3.org/Graphics/SVG/1.1/DTD/svg11.dtd">
<svg width="100%" height="100%" viewBox="0 0 760 524" version="1.1" xmlns="http://www.w3.org/2000/svg" xmlns:xlink="http://www.w3.org/1999/xlink" xml:space="preserve" xmlns:serif="http://www.serif.com/" style="fill-rule:evenodd;clip-rule:evenodd;stroke-linejoin:round;stroke-miterlimit:2;">
    <g transform="matrix(1,0,0,1,-1415.4,-1305.59)">
        <g transform="matrix(0.897103,0,0,0.897103,257.009,1176.81)">
            <g transform="matrix(0.423093,0,0,0.423093,1385.93,723.563)">
                <path d="M0,-133.216C0,-137.584 -3.782,-140.194 -7.558,-140.194C-10.467,-140.194 -13.376,-138.601 -14.393,-134.82L-36.793,-53.227L-61.515,-134.963C-62.842,-139.331 -65.595,-141.51 -68.504,-141.51C-71.263,-141.51 -74.177,-139.331 -75.338,-134.963L-100.06,-53.227L-122.461,-134.82C-123.633,-138.601 -126.386,-140.194 -129.295,-140.194C-133.071,-140.194 -136.854,-137.584 -136.854,-133.216C-136.854,-132.486 -136.716,-131.767 -136.572,-131.037L-107.476,-25.148C-106.314,-20.797 -103.406,-18.468 -100.498,-18.468C-97.589,-18.468 -94.83,-20.647 -93.52,-25.016L-68.504,-107.769L-43.345,-25.016C-42.173,-20.647 -39.264,-18.468 -36.367,-18.468C-33.591,-18.468 -30.688,-20.797 -29.378,-25.148L-0.293,-131.037C-0.138,-131.767 0,-132.486 0,-133.216M13.321,-130.595C13.321,-125.364 17.678,-121.007 22.909,-121.007C28.162,-121.007 32.513,-125.364 32.513,-130.595C32.513,-135.836 28.162,-140.194 22.909,-140.194C17.678,-140.194 13.321,-135.836 13.321,-130.595M15.632,-28.201C15.632,-23.412 19.259,-20.946 22.909,-20.946C26.547,-20.946 30.18,-23.412 30.18,-28.201L30.18,-100.205C30.18,-105.004 26.547,-107.471 22.909,-107.471C19.259,-107.471 15.632,-105.004 15.632,-100.205L15.632,-28.201ZM110.633,-67.47L110.633,-77.667C110.633,-94.963 96.65,-108.93 79.353,-108.93C62.052,-108.93 48.079,-94.963 48.079,-77.667L48.079,-50.755C48.079,-33.011 64.081,-19.486 80.802,-19.486C89.677,-19.486 98.839,-22.538 104.955,-29.085C106.26,-30.39 106.84,-31.413 106.84,-31.413C107.858,-32.867 108.294,-34.172 108.294,-35.632C108.294,-39.558 104.518,-42.909 100.725,-42.909C98.557,-42.909 96.522,-41.88 94.913,-39.558C91.131,-35.632 86.331,-34.017 80.802,-34.017C71.059,-34.017 62.632,-42.03 62.632,-50.755L62.632,-60.205L103.346,-60.205C107.277,-60.205 110.633,-63.556 110.633,-67.47M96.074,-74.758L62.632,-74.758L62.632,-77.667C62.632,-86.968 70.042,-94.388 79.353,-94.388C88.67,-94.388 96.074,-86.968 96.074,-77.667L96.074,-74.758ZM152.436,-27.039C152.436,-29.66 151.137,-32.281 147.786,-33.597C143.561,-36.351 142.257,-41.88 142.257,-46.68L142.257,-132.928C142.257,-137.728 138.629,-140.194 134.985,-140.194C131.347,-140.194 127.725,-137.728 127.725,-132.928L127.725,-46.68C127.725,-36.937 131.209,-26.907 139.641,-21.521C141.383,-20.349 142.555,-19.917 142.555,-19.917C143.561,-19.63 144.584,-19.331 145.452,-19.331C149.688,-19.331 152.436,-23.257 152.436,-27.039M225.364,-67.47L225.364,-77.667C225.364,-94.963 211.391,-108.93 194.1,-108.93C176.782,-108.93 162.815,-94.963 162.815,-77.667L162.815,-50.755C162.815,-33.011 178.828,-19.486 195.555,-19.486C204.419,-19.486 213.586,-22.538 219.691,-29.085C220.996,-30.39 221.593,-31.413 221.593,-31.413C222.599,-32.867 223.042,-34.172 223.042,-35.632C223.042,-39.558 219.26,-42.909 215.477,-42.909C213.293,-42.909 211.264,-41.88 209.649,-39.558C205.867,-35.632 201.078,-34.017 195.555,-34.017C185.806,-34.017 177.374,-42.03 177.374,-50.755L177.374,-60.205L218.088,-60.205C222.013,-60.205 225.364,-63.556 225.364,-67.47M210.821,-74.758L177.374,-74.758L177.374,-77.667C177.374,-86.968 184.789,-94.388 194.1,-94.388C203.407,-94.388 210.821,-86.968 210.821,-77.667L210.821,-74.758ZM339.531,-50.755L339.531,-77.667C339.531,-94.963 325.563,-108.93 308.261,-108.93C290.943,-108.93 276.987,-94.963 276.987,-77.667L276.987,-50.755C276.987,-33.443 290.943,-19.486 308.261,-19.486C325.563,-19.486 339.531,-33.443 339.531,-50.755M324.994,-50.755C324.994,-41.438 317.578,-34.017 308.261,-34.017C298.95,-34.017 291.546,-41.438 291.546,-50.755L291.546,-77.667C291.546,-86.968 298.95,-94.388 308.261,-94.388C317.578,-94.388 324.994,-86.968 324.994,-77.667L324.994,-50.755ZM419.116,-28.201C419.116,-29.522 418.673,-31.109 417.518,-32.569L390.457,-68.643L413.454,-95.549C414.759,-97.009 415.334,-98.602 415.334,-100.205C415.334,-104.12 411.701,-107.625 407.78,-107.625C405.889,-107.625 403.987,-106.752 402.384,-104.85L372.276,-69.66L372.276,-132.928C372.276,-137.728 368.643,-140.194 365.01,-140.194C361.383,-140.194 357.739,-137.728 357.739,-132.928L357.739,-28.201C357.739,-23.412 361.383,-20.946 365.01,-20.946C368.643,-20.946 372.276,-23.412 372.276,-28.201L372.276,-47.399L380.725,-57.297L405.889,-23.844C407.476,-21.676 409.511,-20.797 411.551,-20.797C415.334,-20.797 419.116,-24.131 419.116,-28.201M488.743,-47.399L488.743,-81.007C488.743,-97.296 477.839,-108.93 459.802,-108.93C450.921,-108.93 442.207,-105.436 436.379,-98.756C434.93,-97.142 433.758,-95.118 433.758,-92.784C433.758,-88.571 437.103,-85.508 441.035,-85.508C447.869,-85.508 449.041,-94.388 459.802,-94.388C469.976,-94.388 474.195,-89.146 474.195,-81.007L474.195,-76.34L457.468,-72.712C443.506,-69.804 430.125,-61.952 430.125,-45.817C430.125,-28.355 444.673,-19.486 459.508,-19.486C474.919,-19.486 488.743,-30.534 488.743,-47.399M474.195,-47.399C474.195,-39.845 468.229,-34.017 459.354,-34.017C449.915,-34.017 444.673,-38.972 444.673,-45.95C444.673,-51.336 449.318,-56.721 458.928,-58.756L474.195,-62.24L474.195,-47.399ZM563.202,-28.201C563.202,-31.839 560.719,-35.477 555.926,-35.477L522.461,-35.477L561.444,-96.279C562.605,-98.026 563.036,-99.774 563.036,-101.366C563.036,-104.85 560.139,-107.471 555.345,-107.471L512.575,-107.471C507.62,-107.471 505.309,-103.849 505.309,-100.205C505.309,-96.567 507.62,-92.939 512.575,-92.939L541.953,-92.939L502.981,-32.137C501.958,-30.39 501.383,-28.654 501.383,-27.039C501.383,-23.556 504.291,-20.946 509.235,-20.946L555.926,-20.946C560.719,-20.946 563.202,-24.578 563.202,-28.201M594.239,-28.201L594.239,-100.205C594.239,-105.004 590.606,-107.471 586.974,-107.471C583.329,-107.471 579.697,-105.004 579.697,-100.205L579.697,-28.201C579.697,-20.061 576.639,-11.922 570.822,-6.105C568.643,-3.926 566.465,-2.898 566.465,0.74C566.465,4.512 569.815,8.294 573.736,8.294C575.184,8.294 576.788,7.863 578.242,6.702C588.428,-0.874 594.239,-16.135 594.239,-28.201M577.38,-130.595C577.38,-125.364 581.737,-121.007 586.974,-121.007C592.204,-121.007 596.567,-125.364 596.567,-130.595C596.567,-135.836 592.204,-140.194 586.974,-140.194C581.737,-140.194 577.38,-135.836 577.38,-130.595M612.79,-130.595C612.79,-125.364 617.142,-121.007 622.389,-121.007C627.631,-121.007 631.989,-125.364 631.989,-130.595C631.989,-135.836 627.631,-140.194 622.389,-140.194C617.142,-140.194 612.79,-135.836 612.79,-130.595M615.113,-28.201C615.113,-23.412 618.74,-20.946 622.389,-20.946C626.028,-20.946 629.655,-23.412 629.655,-28.201L629.655,-100.205C629.655,-105.004 626.028,-107.471 622.389,-107.471C618.74,-107.471 615.113,-105.004 615.113,-100.205L615.113,-28.201ZM645.707,-30.534C645.707,-25.292 650.081,-20.946 655.323,-20.946C660.537,-20.946 664.922,-25.292 664.922,-30.534C664.922,-35.776 660.537,-40.139 655.323,-40.139C650.081,-40.139 645.707,-35.776 645.707,-30.534M678.16,-30.534C678.16,-25.292 682.528,-20.946 687.759,-20.946C692.989,-20.946 697.363,-25.292 697.363,-30.534C697.363,-35.776 692.989,-40.139 687.759,-40.139C682.528,-40.139 678.16,-35.776 678.16,-30.534M710.6,-30.534C710.6,-25.292 714.974,-20.946 720.205,-20.946C725.431,-20.946 729.816,-25.292 729.816,-30.534C729.816,-35.776 725.431,-40.139 720.205,-40.139C714.974,-40.139 710.6,-35.776 710.6,-30.534M827.261,-102.682C823.031,-106.453 817.059,-108.93 810.529,-108.93C793.211,-108.93 779.254,-94.963 779.254,-77.667L779.254,-50.755C779.254,-33.443 793.211,-19.486 810.529,-19.486C827.831,-19.486 841.793,-33.443 841.793,-50.755L841.793,-132.928C841.793,-137.728 838.148,-140.194 834.527,-140.194C830.883,-140.194 827.261,-137.728 827.261,-132.928L827.261,-102.682ZM810.529,-94.388C819.83,-94.388 827.261,-86.968 827.261,-77.667L827.261,-50.755C827.261,-41.438 819.83,-34.017 810.529,-34.017C801.212,-34.017 793.797,-41.438 793.797,-50.755L793.797,-77.667C793.797,-86.968 801.212,-94.388 810.529,-94.388M922.169,-50.755L922.169,-77.667C922.169,-94.963 908.212,-108.93 890.911,-108.93C873.592,-108.93 859.636,-94.963 859.636,-77.667L859.636,-50.755C859.636,-33.443 873.592,-19.486 890.911,-19.486C908.212,-19.486 922.169,-33.443 922.169,-50.755M907.637,-50.755C907.637,-41.438 900.222,-34.017 890.911,-34.017C881.594,-34.017 874.184,-41.438 874.184,-50.755L874.184,-77.667C874.184,-86.968 881.594,-94.388 890.911,-94.388C900.222,-94.388 907.637,-86.968 907.637,-77.667L907.637,-50.755ZM989.81,-25.751C994.024,-21.952 999.984,-19.486 1006.54,-19.486C1023.84,-19.486 1037.8,-33.443 1037.8,-50.755L1037.8,-77.667C1037.8,-94.963 1023.84,-108.93 1006.54,-108.93C989.219,-108.93 975.262,-94.963 975.262,-77.667L975.262,0.873C975.262,5.673 978.895,8.15 982.528,8.15C986.166,8.15 989.81,5.673 989.81,0.873L989.81,-25.751ZM989.81,-77.667C989.81,-86.968 997.22,-94.388 1006.54,-94.388C1015.83,-94.388 1023.26,-86.968 1023.26,-77.667L1023.26,-50.755C1023.26,-41.438 1015.83,-34.017 1006.54,-34.017C997.22,-34.017 989.81,-41.438 989.81,-50.755L989.81,-77.667ZM1117.43,-50.755L1117.43,-77.667C1117.43,-94.963 1103.47,-108.93 1086.15,-108.93C1068.85,-108.93 1054.9,-94.963 1054.9,-77.667L1054.9,-50.755C1054.9,-33.443 1068.85,-19.486 1086.15,-19.486C1103.47,-19.486 1117.43,-33.443 1117.43,-50.755M1102.88,-50.755C1102.88,-41.438 1095.47,-34.017 1086.15,-34.017C1076.84,-34.017 1069.43,-41.438 1069.43,-50.755L1069.43,-77.667C1069.43,-86.968 1076.84,-94.388 1086.15,-94.388C1095.47,-94.388 1102.88,-86.968 1102.88,-77.667L1102.88,-50.755ZM1234.17,-28.201L1234.17,-80.564C1234.17,-96.279 1221.52,-108.93 1205.81,-108.93C1197.38,-108.93 1189.95,-105.292 1184.72,-99.475C1179.49,-105.292 1172.07,-108.93 1163.63,-108.93C1147.93,-108.93 1135.27,-96.279 1135.27,-80.564L1135.27,-28.201C1135.27,-23.412 1138.92,-20.946 1142.54,-20.946C1146.18,-20.946 1149.81,-23.412 1149.81,-28.201L1149.81,-80.564C1149.81,-88.14 1156.07,-94.388 1163.63,-94.388C1171.2,-94.388 1177.45,-88.14 1177.45,-80.564L1177.45,-28.201C1177.45,-23.113 1181.09,-20.647 1184.72,-20.647C1188.36,-20.647 1192,-23.113 1192,-28.201L1192,-80.564C1192,-88.14 1198.25,-94.388 1205.81,-94.388C1213.37,-94.388 1219.63,-88.14 1219.63,-80.564L1219.63,-28.201C1219.63,-23.412 1223.26,-20.946 1226.9,-20.946C1230.55,-20.946 1234.17,-23.412 1234.17,-28.201M1309.29,-47.399L1309.29,-81.007C1309.29,-97.296 1298.38,-108.93 1280.35,-108.93C1271.49,-108.93 1262.75,-105.436 1256.94,-98.756C1255.48,-97.142 1254.32,-95.118 1254.32,-92.784C1254.32,-88.571 1257.66,-85.508 1261.59,-85.508C1268.43,-85.508 1269.6,-94.388 1280.35,-94.388C1290.53,-94.388 1294.75,-89.146 1294.75,-81.007L1294.75,-76.34L1278.03,-72.712C1264.07,-69.804 1250.68,-61.952 1250.68,-45.817C1250.68,-28.355 1265.23,-19.486 1280.06,-19.486C1295.47,-19.486 1309.29,-30.534 1309.29,-47.399M1294.75,-47.399C1294.75,-39.845 1288.78,-34.017 1279.91,-34.017C1270.46,-34.017 1265.23,-38.972 1265.23,-45.95C1265.23,-51.336 1269.88,-56.721 1279.48,-58.756L1294.75,-62.24L1294.75,-47.399ZM1374.38,-23.113C1374.38,-13.813 1366.97,-6.392 1357.66,-6.392C1352.56,-6.392 1346.74,-7.852 1343.55,-11.922C1341.79,-14.1 1339.91,-15.261 1337.72,-15.261C1333.95,-15.261 1330.16,-11.922 1330.16,-7.996C1330.16,-6.536 1330.61,-5.226 1331.61,-3.771C1336.86,4.207 1348.79,8.15 1357.66,8.15C1374.96,8.15 1388.91,-5.818 1388.91,-23.113L1388.91,-77.667C1388.91,-94.963 1374.96,-108.93 1357.66,-108.93C1340.34,-108.93 1326.38,-94.963 1326.38,-77.667L1326.38,-53.669C1326.38,-36.351 1340.34,-22.395 1357.66,-22.395C1364.2,-22.395 1370.16,-24.86 1374.38,-28.654L1374.38,-23.113ZM1374.38,-53.669C1374.38,-44.358 1366.97,-36.937 1357.66,-36.937C1348.34,-36.937 1340.92,-44.358 1340.92,-53.669L1340.92,-77.667C1340.92,-86.968 1348.34,-94.388 1357.66,-94.388C1366.97,-94.388 1374.38,-86.968 1374.38,-77.667L1374.38,-53.669ZM1463.9,-47.399L1463.9,-81.007C1463.9,-97.296 1452.98,-108.93 1434.96,-108.93C1426.08,-108.93 1417.36,-105.436 1411.54,-98.756C1410.09,-97.142 1408.93,-95.118 1408.93,-92.784C1408.93,-88.571 1412.26,-85.508 1416.2,-85.508C1423.03,-85.508 1424.2,-94.388 1434.96,-94.388C1445.14,-94.388 1449.36,-89.146 1449.36,-81.007L1449.36,-76.34L1432.63,-72.712C1418.67,-69.804 1405.28,-61.952 1405.28,-45.817C1405.28,-28.355 1419.82,-19.486 1434.66,-19.486C1450.08,-19.486 1463.9,-30.534 1463.9,-47.399M1449.36,-47.399C1449.36,-39.845 1443.39,-34.017 1434.52,-34.017C1425.06,-34.017 1419.82,-38.972 1419.82,-45.95C1419.82,-51.336 1424.48,-56.721 1434.09,-58.756L1449.36,-62.24L1449.36,-47.399ZM1544.48,-28.201L1544.48,-77.667C1544.48,-94.963 1530.51,-108.93 1513.21,-108.93C1495.89,-108.93 1481.93,-94.963 1481.93,-77.667L1481.93,-28.201C1481.93,-23.412 1485.57,-20.946 1489.2,-20.946C1492.84,-20.946 1496.48,-23.412 1496.48,-28.201L1496.48,-77.667C1496.48,-86.968 1503.9,-94.388 1513.21,-94.388C1522.51,-94.388 1529.92,-86.968 1529.92,-77.667L1529.92,-28.201C1529.92,-23.412 1533.57,-20.946 1537.2,-20.946C1540.84,-20.946 1544.48,-23.412 1544.48,-28.201M1561.33,-130.595C1561.33,-125.364 1565.69,-121.007 1570.92,-121.007C1576.16,-121.007 1580.53,-125.364 1580.53,-130.595C1580.53,-135.836 1576.16,-140.194 1570.92,-140.194C1565.69,-140.194 1561.33,-135.836 1561.33,-130.595M1563.65,-28.201C1563.65,-23.412 1567.3,-20.946 1570.92,-20.946C1574.57,-20.946 1578.21,-23.412 1578.21,-28.201L1578.21,-100.205C1578.21,-105.004 1574.57,-107.471 1570.92,-107.471C1567.3,-107.471 1563.65,-105.004 1563.65,-100.205L1563.65,-28.201ZM1653.47,-47.399L1653.47,-81.007C1653.47,-97.296 1642.56,-108.93 1624.53,-108.93C1615.65,-108.93 1606.92,-105.436 1601.1,-98.756C1599.65,-97.142 1598.49,-95.118 1598.49,-92.784C1598.49,-88.571 1601.83,-85.508 1605.76,-85.508C1612.59,-85.508 1613.76,-94.388 1624.53,-94.388C1634.7,-94.388 1638.92,-89.146 1638.92,-81.007L1638.92,-76.34L1622.19,-72.712C1608.24,-69.804 1594.85,-61.952 1594.85,-45.817C1594.85,-28.355 1609.4,-19.486 1624.24,-19.486C1639.65,-19.486 1653.47,-30.534 1653.47,-47.399M1638.92,-47.399C1638.92,-39.845 1632.96,-34.017 1624.08,-34.017C1614.64,-34.017 1609.4,-38.972 1609.4,-45.95C1609.4,-51.336 1614.04,-56.721 1623.65,-58.756L1638.92,-62.24L1638.92,-47.399ZM1685.03,-69.66L1685.03,-132.928C1685.03,-137.728 1681.4,-140.194 1677.77,-140.194C1674.13,-140.194 1670.5,-137.728 1670.5,-132.928L1670.5,-69.66C1670.5,-64.861 1674.13,-62.384 1677.77,-62.384C1681.4,-62.384 1685.03,-64.861 1685.03,-69.66M1668.17,-30.534C1668.17,-25.292 1672.53,-20.946 1677.77,-20.946C1683.01,-20.946 1687.37,-25.292 1687.37,-30.534C1687.37,-35.776 1683.01,-40.139 1677.77,-40.139C1672.53,-40.139 1668.17,-35.776 1668.17,-30.534" style="fill:rgb(101,106,106);fill-rule:nonzero;"/>
            </g>
            <g transform="matrix(0.423093,0,0,0.423093,1444.91,199.737)">
                <path d="M0,741.356C241.797,810.264 770.025,892.945 770.025,892.945C1060.5,948.345 1308.17,871.828 1453.46,728.815C1595.22,596.02 1681.91,350.501 1612.34,110.236C1501.21,-206.989 981.604,-128.573 734.133,-112.737C504.783,-91.503 340.348,-72.126 125.292,-42.875C-68.278,-16.563 -229.848,16.946 -309.544,151.817C-436.793,379.141 -339.121,673.498 0,741.356" style="fill:rgb(236,24,83);fill-rule:nonzero;"/>
            </g>
            <g transform="matrix(0.536528,0,0,0.536528,1948.47,285.357)">
                <path d="M0,196.517C5.242,196.517 7.885,199.256 7.885,204.664L7.885,220.025C7.885,225.433 5.242,227.335 0,227.335L-13.906,227.335C-19.137,227.335 -21.781,224.606 -21.781,219.198L-21.781,204.664C-21.781,199.256 -19.137,196.517 -13.906,196.517L0,196.517ZM163.644,227.46C168.681,227.46 172.419,227.46 172.48,222.342L172.48,201.783C172.48,197.955 169.505,196.251 166.879,196.215L161.908,196.215C159.823,196.215 159.287,192.701 159.265,192.594C159.055,190.946 158.867,188.068 158.867,186.398L158.867,99.948C158.867,94.553 158.646,91.822 153.404,91.822L139.005,91.822C136.478,91.822 134.106,91.173 132.32,93.042C130.523,94.897 130.346,97.36 130.363,99.983L130.368,107.625C130.385,109.553 130.385,112.757 130.385,114.681L130.385,192.433C130.385,194.485 130.473,197.814 130.573,199.879C131.115,209.555 137.042,227.46 158.352,227.46L163.644,227.46ZM76.611,149.395C63.152,149.539 54.99,161.173 54.99,177.349C54.99,189.348 61.283,205.065 77.081,204.777C90.948,204.557 99.436,194.02 98.883,177.175C98.386,161.582 93.315,149.215 76.611,149.395M77.562,124.567C103.583,124.567 121.068,145.66 121.068,176.998C121.068,207.874 102.693,229.425 76.389,229.425C67.393,229.425 60.774,227.006 56.135,224.186L56.135,239.317C56.135,240.954 56.152,242.356 56.152,242.624L56.152,242.696L56.119,263.246C56.085,268.648 53.431,271.353 48.217,271.353L24.479,271.353C19.226,271.353 16.583,268.616 16.583,263.218L16.583,249.738C16.583,244.321 19.226,241.593 24.479,241.593L30.069,241.593L30.069,153.354C30.069,153.053 30.036,152.668 30.008,152.24L27.006,152.24C21.775,152.24 19.939,149.527 19.939,144.109L19.939,134.8C19.939,129.392 21.775,126.658 27.006,126.658L34.996,126.658C37.495,126.658 41.189,127.269 43.567,128.048C46.061,128.894 49.14,130.592 51.452,133.094C56.461,128.792 64.661,124.567 77.562,124.567M-436.002,-17.586C-428.383,-17.586 -421.41,-20.802 -416.423,-25.966C-411.413,-31.108 -408.289,-38.321 -408.289,-46.215C-408.289,-54.092 -411.413,-61.288 -416.423,-66.439C-421.41,-71.614 -428.383,-74.836 -436.002,-74.824C-443.655,-74.836 -450.633,-71.614 -455.638,-66.439C-460.625,-61.288 -463.744,-54.092 -463.744,-46.215C-463.744,-38.321 -460.625,-31.108 -455.638,-25.966C-450.633,-20.802 -443.655,-17.586 -436.002,-17.586M-397.75,195.463L-410.954,195.463L-419.502,36.063L-410.019,36.063C-408.333,36.063 -406.691,35.366 -405.513,34.161C-404.313,32.92 -403.633,31.222 -403.633,29.483L-403.633,11.059C-403.633,9.32 -404.313,7.645 -405.513,6.392C-406.691,5.187 -408.333,4.479 -410.019,4.479L-454.04,4.479C-456.583,4.479 -458.889,6.035 -459.906,8.46L-501.93,108.927L-544.745,63.899C-545.939,62.646 -547.598,61.922 -549.295,61.922L-585.192,61.922C-586.863,61.922 -588.51,62.618 -589.704,63.852C-590.899,65.071 -591.573,66.762 -591.573,68.502L-591.573,86.932C-591.573,88.671 -590.899,90.34 -589.704,91.568C-588.51,92.809 -586.863,93.517 -585.192,93.517L-578.286,93.517L-587.526,195.463L-598.629,195.463C-600.31,195.463 -601.947,196.155 -603.141,197.376C-604.335,198.607 -605.021,200.31 -605.021,202.049L-605.021,220.711C-605.021,222.439 -604.335,224.12 -603.141,225.358C-601.947,226.589 -600.31,227.296 -598.629,227.296L-560.155,227.296C-556.837,227.296 -554.028,224.628 -553.796,221.209L-552.436,202.596L-543.943,105.701L-511.22,140.802C-510.02,142.074 -508.377,142.806 -506.652,142.806L-489.732,142.806C-487.321,142.806 -485.12,141.402 -484.037,139.188L-455.438,80.653L-448.604,202.342L-447.742,221.034C-447.564,224.537 -444.778,227.296 -441.372,227.296L-397.75,227.296C-396.052,227.296 -394.426,226.589 -393.232,225.358C-392.032,224.12 -391.369,222.439 -391.369,220.711L-391.369,202.049C-391.369,200.31 -392.032,198.607 -393.232,197.376C-394.426,196.155 -396.052,195.463 -397.75,195.463M-313.558,178.093C-312.486,174.75 -311.866,171.269 -311.711,167.916C-314.764,167.929 -319.408,168.018 -324.617,168.562C-330.152,169.099 -336.229,170.238 -341.117,172.209C-344.407,173.484 -347.083,175.132 -348.88,176.92C-349.92,177.949 -350.678,179.033 -351.214,180.18C-351.839,181.535 -352.198,183.047 -352.198,185.052C-352.198,187.883 -351.462,190.553 -350.075,192.735C-348.698,194.924 -346.757,196.691 -344.076,197.814C-342.245,198.571 -340.105,199.046 -337.49,199.046C-334.565,199.035 -331.944,198.474 -329.516,197.479C-327.072,196.448 -324.816,194.983 -322.776,193.091C-318.673,189.337 -315.422,183.951 -313.558,178.093M-266.127,196.193C-264.452,196.193 -262.792,196.89 -261.603,198.106C-260.415,199.326 -259.746,201.04 -259.746,202.768L-259.746,220.711C-259.746,222.428 -260.415,224.142 -261.603,225.383C-262.792,226.589 -264.452,227.296 -266.127,227.296L-289.527,227.296C-293.033,227.296 -296.224,226.799 -299.121,225.677C-302.024,224.551 -304.579,222.737 -306.481,220.348C-307.437,219.154 -308.211,217.816 -308.803,216.436C-309.395,217.009 -309.975,217.584 -310.617,218.123C-313.625,220.857 -317.235,223.456 -321.565,225.546C-327.332,228.333 -334.305,230.166 -342.361,230.166C-348.521,230.166 -354.714,229.119 -360.525,226.962C-366.32,224.769 -371.75,221.463 -376.229,216.854C-379.204,213.802 -381.77,210.175 -383.677,206.03C-386.254,200.498 -387.653,194.07 -387.653,186.97C-387.653,180.028 -386.221,173.788 -383.6,168.483C-381.018,163.133 -377.307,158.772 -373.049,155.278C-370.202,152.959 -367.094,150.998 -363.904,149.351C-359.585,147.158 -355.073,145.488 -350.495,144.186C-344.424,142.472 -338.275,141.402 -332.536,140.744C-324.866,139.862 -317.937,139.707 -312.928,139.707L-311.944,139.707C-312.071,137.131 -312.43,134.941 -312.967,133.152C-313.625,130.905 -314.532,129.246 -315.593,127.918C-316.295,127.042 -317.097,126.296 -317.999,125.621C-319.237,124.767 -320.674,124.07 -322.395,123.548C-324.661,122.829 -327.432,122.444 -330.534,122.455C-337.882,122.444 -344.91,124.637 -350.274,127.097C-355.66,129.533 -359.381,132.19 -360.166,132.759L-360.287,132.862L-360.315,132.862C-361.792,134.012 -363.65,134.432 -365.435,134.056C-367.216,133.666 -368.781,132.505 -369.693,130.846L-378.717,114.335C-380.249,111.54 -379.602,108.012 -377.186,105.989C-376.871,105.735 -372.143,101.817 -363.81,97.926C-355.466,94.031 -343.44,90.164 -328.665,90.164C-319.685,90.164 -311.584,91.512 -304.517,94.388C-297.445,97.263 -291.463,101.731 -286.945,107.625C-283.915,111.551 -281.598,116.052 -279.951,121.029C-277.728,127.686 -276.666,135.151 -276.666,143.412L-276.666,196.193L-266.127,196.193ZM-102.333,196.193L-114.487,196.193L-114.487,143.157C-114.487,135.021 -115.283,127.686 -117.036,121.137C-118.33,116.226 -120.199,111.783 -122.693,107.847C-124.573,104.891 -126.763,102.27 -129.35,100.017C-133.193,96.63 -137.766,94.123 -142.858,92.508C-147.979,90.907 -153.614,90.152 -159.79,90.152C-168.018,90.152 -175.25,91.767 -181.46,94.308C-189.074,97.429 -195.062,101.93 -199.624,106.516C-199.762,105.989 -199.933,105.458 -200.105,104.902C-200.791,102.978 -201.797,101.153 -203.152,99.585C-204.13,98.391 -205.297,97.36 -206.569,96.489C-208.488,95.203 -210.605,94.343 -212.867,93.81C-215.112,93.274 -217.517,93.042 -220.05,93.042L-246.442,93.042C-248.117,93.042 -249.787,93.749 -250.965,94.954C-252.154,96.165 -252.806,97.894 -252.806,99.632L-252.806,117.559C-252.806,119.29 -252.154,120.984 -250.965,122.223C-249.787,123.44 -248.117,124.147 -246.442,124.147L-233.365,124.147L-233.37,196.193L-245.297,196.193C-246.978,196.193 -248.615,196.89 -249.82,198.106C-250.982,199.326 -251.656,201.04 -251.656,202.768L-251.656,220.711C-251.656,222.428 -250.982,224.142 -249.82,225.358C-248.615,226.589 -246.978,227.296 -245.297,227.296L-185.977,227.296C-184.302,227.296 -182.649,226.589 -181.477,225.358C-180.282,224.142 -179.613,222.428 -179.613,220.711L-179.613,202.768C-179.613,201.04 -180.282,199.326 -181.477,198.106C-182.649,196.89 -184.302,196.193 -185.977,196.193L-198.136,196.193L-198.136,164.457C-198.136,159.146 -197.285,153.948 -195.676,149.151C-193.282,141.96 -189.267,135.768 -184.114,131.468C-181.548,129.312 -178.684,127.62 -175.56,126.436C-172.447,125.275 -169.063,124.623 -165.347,124.623C-161.382,124.623 -158.667,125.319 -156.854,126.271C-155.444,127.015 -154.47,127.863 -153.592,129.002C-152.966,129.846 -152.375,130.868 -151.888,132.11C-151.12,133.978 -150.573,136.345 -150.196,139.107C-149.842,141.878 -149.715,145.013 -149.715,148.444L-149.715,220.711C-149.715,222.428 -149.046,224.142 -147.835,225.358C-146.663,226.589 -145.031,227.296 -143.323,227.296L-102.333,227.296C-100.641,227.296 -98.999,226.589 -97.805,225.358C-96.649,224.142 -95.958,222.428 -95.958,220.711L-95.958,202.768C-95.958,201.04 -96.649,199.326 -97.805,198.106C-98.999,196.89 -100.641,196.193 -102.333,196.193M-563.539,44.302C-557.247,44.302 -551.54,41.645 -547.415,37.399C-543.296,33.141 -540.73,27.241 -540.73,20.747C-540.73,14.264 -543.296,8.364 -547.415,4.095C-551.54,-0.163 -557.247,-2.809 -563.539,-2.809C-569.821,-2.809 -575.549,-0.163 -579.663,4.095C-583.766,8.364 -586.343,14.264 -586.343,20.747C-586.343,27.241 -583.766,33.141 -579.663,37.399C-575.549,41.645 -569.821,44.302 -563.539,44.302M-40.591,198.034C-41.769,196.804 -43.412,196.086 -45.087,196.086L-52.547,196.086L-52.547,113.995C-52.547,112.281 -53.232,110.575 -54.426,109.37C-55.61,108.126 -57.257,107.429 -58.944,107.429L-91.286,107.429C-92.956,107.429 -94.587,108.126 -95.775,109.37C-96.959,110.575 -97.65,112.281 -97.65,113.995L-97.65,132.041C-97.65,133.758 -96.959,135.461 -95.775,136.691C-94.587,137.924 -92.956,138.621 -91.286,138.621L-87.791,138.621L-87.791,220.711C-87.791,222.439 -87.094,224.12 -85.906,225.383C-84.717,226.589 -83.075,227.296 -81.416,227.296L-45.087,227.296C-43.412,227.296 -41.769,226.589 -40.591,225.383C-39.408,224.12 -38.722,222.428 -38.722,220.711L-38.722,202.688C-38.722,200.937 -39.408,199.246 -40.591,198.034M-85.834,87.39C-82.837,90.493 -78.645,92.43 -74.078,92.417C-69.505,92.43 -65.308,90.493 -62.328,87.39C-59.32,84.305 -57.462,79.978 -57.462,75.245C-57.462,70.534 -59.32,66.218 -62.328,63.11C-65.308,60.019 -69.505,58.081 -74.078,58.081C-78.645,58.081 -82.837,60.019 -85.834,63.11C-88.831,66.218 -90.705,70.534 -90.705,75.245C-90.705,79.978 -88.831,84.305 -85.834,87.39M-894.869,193.091C-890.761,189.348 -887.531,183.951 -885.652,178.093C-884.579,174.75 -883.965,171.269 -883.827,167.916C-886.857,167.929 -891.518,168.018 -896.71,168.562C-902.251,169.099 -908.317,170.238 -913.205,172.209C-916.484,173.484 -919.193,175.132 -921.007,176.92C-922.008,177.949 -922.776,179.033 -923.329,180.18C-923.915,181.535 -924.308,183.047 -924.308,185.052C-924.308,187.883 -923.551,190.553 -922.184,192.735C-920.802,194.924 -918.883,196.691 -916.163,197.814C-914.377,198.571 -912.193,199.046 -909.594,199.046C-906.663,199.035 -904.048,198.474 -901.599,197.479C-899.188,196.448 -896.92,194.983 -894.869,193.091M-838.22,196.193C-836.534,196.193 -834.919,196.89 -833.713,198.106C-832.53,199.326 -831.85,201.04 -831.85,202.768L-831.85,220.711C-831.85,222.439 -832.53,224.142 -833.713,225.383C-834.919,226.589 -836.534,227.296 -838.22,227.296L-861.621,227.296C-865.132,227.296 -868.322,226.799 -871.225,225.677C-874.123,224.551 -876.699,222.737 -878.58,220.348C-879.525,219.154 -880.31,217.816 -880.913,216.436C-881.461,217.009 -882.057,217.584 -882.71,218.123C-885.718,220.857 -889.356,223.456 -893.691,225.546C-899.431,228.333 -906.415,230.166 -914.454,230.166C-920.631,230.166 -926.824,229.119 -932.635,226.962C-938.403,224.769 -943.843,221.463 -948.323,216.854C-951.33,213.802 -953.863,210.175 -955.787,206.03C-958.347,200.498 -959.746,194.07 -959.746,186.97C-959.746,180.028 -958.325,173.788 -955.709,168.483C-953.111,163.133 -949.401,158.772 -945.138,155.278C-942.301,152.959 -939.216,151.009 -935.992,149.351C-931.679,147.158 -927.156,145.488 -922.588,144.186C-916.506,142.472 -910.368,141.402 -904.618,140.744C-896.976,139.862 -890.02,139.707 -885.044,139.707L-884.054,139.707C-884.181,137.131 -884.546,134.941 -885.066,133.152C-885.74,130.905 -886.619,129.246 -887.687,127.918C-888.394,127.042 -889.185,126.296 -890.114,125.621C-891.319,124.767 -892.757,124.07 -894.499,123.548C-896.777,122.829 -899.525,122.444 -902.644,122.455C-909.992,122.444 -916.987,124.637 -922.367,127.097C-927.775,129.533 -931.474,132.19 -932.254,132.759L-932.398,132.862C-933.868,134.012 -935.737,134.432 -937.529,134.056C-939.342,133.666 -940.88,132.505 -941.77,130.846L-950.816,114.335C-952.348,111.551 -951.706,108.012 -949.307,105.989C-948.986,105.735 -944.264,101.817 -935.903,97.926C-927.576,94.031 -915.533,90.164 -900.785,90.164C-891.756,90.164 -883.65,91.524 -876.617,94.388C-869.555,97.263 -863.545,101.731 -859.055,107.625C-856.047,111.551 -853.714,116.052 -852.055,121.029C-849.815,127.686 -848.77,135.151 -848.748,143.412L-848.748,196.193L-838.22,196.193ZM-675.218,196.193L-687.377,196.193L-687.377,143.157C-687.377,135.021 -688.162,127.686 -689.92,121.137C-691.225,116.226 -693.1,111.783 -695.593,107.847C-697.473,104.891 -699.674,102.27 -702.24,100.017C-706.088,96.63 -710.667,94.123 -715.743,92.508C-720.874,90.907 -726.514,90.152 -732.663,90.152C-740.913,90.152 -748.167,91.767 -754.36,94.308C-761.947,97.429 -767.946,101.93 -772.53,106.516C-772.668,105.989 -772.823,105.458 -773.006,104.902C-773.692,102.978 -774.686,101.153 -776.025,99.585C-777.02,98.391 -778.203,97.36 -779.464,96.489C-781.366,95.203 -783.501,94.343 -785.746,93.81C-788.013,93.274 -790.401,93.042 -792.928,93.042L-819.353,93.042C-821.029,93.042 -822.682,93.749 -823.854,94.954C-825.032,96.165 -825.707,97.894 -825.707,99.632L-825.707,117.559C-825.707,119.29 -825.032,120.984 -823.854,122.223C-822.682,123.44 -821.029,124.147 -819.353,124.147L-806.26,124.147L-806.26,196.193L-818.209,196.193C-819.885,196.193 -821.51,196.89 -822.699,198.106C-823.893,199.326 -824.573,201.04 -824.573,202.768L-824.573,220.711C-824.573,222.428 -823.893,224.142 -822.699,225.358C-821.51,226.589 -819.885,227.296 -818.209,227.296L-758.861,227.296C-757.214,227.296 -755.544,226.589 -754.36,225.358C-753.177,224.142 -752.503,222.428 -752.503,220.711L-752.503,202.768C-752.503,201.04 -753.177,199.326 -754.36,198.106C-755.544,196.89 -757.214,196.193 -758.861,196.193L-771.031,196.193L-771.031,164.457C-771.031,159.146 -770.164,153.948 -768.571,149.151C-766.193,141.96 -762.157,135.768 -757.004,131.468C-754.427,129.312 -751.573,127.62 -748.455,126.436C-745.336,125.275 -741.941,124.623 -738.242,124.623C-734.277,124.623 -731.574,125.319 -729.743,126.271C-728.339,127.015 -727.366,127.863 -726.492,129.002C-725.862,129.846 -725.254,130.868 -724.767,132.11C-724.032,133.978 -723.462,136.345 -723.108,139.107C-722.754,141.878 -722.593,145.013 -722.593,148.444L-722.593,220.711C-722.593,222.428 -721.908,224.142 -720.73,225.358C-719.569,226.589 -717.916,227.296 -716.229,227.296L-675.218,227.296C-673.547,227.296 -671.894,226.589 -670.716,225.358C-669.516,224.142 -668.853,222.428 -668.853,220.711L-668.853,202.768C-668.853,201.04 -669.516,199.326 -670.716,198.106C-671.894,196.89 -673.547,196.193 -675.218,196.193M-604.833,109.37C-606.016,108.126 -607.686,107.429 -609.362,107.429L-641.681,107.429C-643.368,107.429 -645.01,108.126 -646.171,109.37C-647.388,110.575 -648.068,112.281 -648.068,114.02L-648.068,196.096L-655.516,196.096C-657.186,196.096 -658.822,196.804 -660.028,198.024C-661.2,199.246 -661.875,200.937 -661.875,202.688L-661.875,220.711C-661.875,222.428 -661.2,224.142 -660.028,225.358C-658.822,226.589 -657.186,227.296 -655.516,227.296L-619.199,227.296C-617.54,227.296 -615.881,226.589 -614.708,225.358C-613.514,224.142 -612.817,222.428 -612.817,220.711L-612.817,138.621L-609.362,138.621C-607.686,138.621 -606.016,137.924 -604.833,136.691C-603.65,135.461 -602.98,133.758 -602.98,132.041L-602.98,114.02C-602.98,112.281 -603.65,110.575 -604.833,109.37M-630.435,95.284C-625.115,95.284 -620.222,93.042 -616.733,89.422C-613.227,85.803 -611.065,80.766 -611.065,75.256C-611.065,69.735 -613.227,64.684 -616.733,61.1C-620.222,57.482 -625.115,55.217 -630.435,55.217C-635.754,55.217 -640.664,57.482 -644.158,61.1C-647.653,64.684 -649.843,69.735 -649.843,75.256C-649.843,80.766 -647.653,85.803 -644.158,89.422C-640.664,93.042 -635.754,95.284 -630.435,95.284M-967.537,94.042L-989.848,94.042C-989.848,89.281 -989.064,86.002 -988.013,83.727C-987.227,82.021 -986.343,80.838 -985.325,79.887C-984.573,79.168 -983.7,78.607 -982.804,78.154C-981.438,77.446 -979.895,76.959 -978.32,76.693C-976.76,76.417 -975.195,76.326 -973.874,76.326C-971.458,76.326 -969.583,76.495 -968.383,76.649C-967.769,76.727 -967.366,76.79 -967.084,76.846C-966.968,76.871 -966.863,76.893 -966.829,76.915L-966.785,76.915C-964.911,77.335 -962.942,76.871 -961.438,75.629C-959.918,74.385 -959.028,72.491 -959.028,70.476L-959.028,51.04C-959.028,47.816 -961.305,45.032 -964.402,44.532C-964.64,44.488 -969.401,43.741 -976.218,43.73C-980.105,43.73 -985.01,44.056 -990.269,45.253C-994.195,46.157 -998.353,47.562 -1002.44,49.743C-1005.49,51.366 -1008.49,53.434 -1011.27,56.044C-1015.42,59.962 -1019.07,65.082 -1021.53,71.507C-1024,77.775 -1025.38,85.267 -1025.44,94.042L-1038.81,94.042C-1040.51,94.042 -1042.15,94.739 -1043.32,95.955C-1044.5,97.186 -1045.18,98.878 -1045.18,100.622L-1045.18,118.848C-1045.18,120.586 -1044.5,122.267 -1043.32,123.498C-1042.15,124.708 -1040.51,125.428 -1038.81,125.428L-1025.44,125.428L-1025.44,223.586C-1025.44,225.314 -1024.74,227.006 -1023.56,228.248C-1022.37,229.448 -1020.74,230.166 -1019.07,230.166L-996.208,230.166C-994.538,230.166 -992.912,229.448 -991.717,228.248C-990.523,227.006 -989.848,225.314 -989.848,223.586L-989.848,125.428L-967.537,125.428C-965.856,125.428 -964.192,124.708 -962.998,123.498C-961.825,122.267 -961.151,120.586 -961.151,118.848L-961.151,100.622C-961.151,98.878 -961.825,97.186 -962.998,95.955C-964.192,94.739 -965.856,94.042 -967.537,94.042" style="fill:white;fill-rule:nonzero;"/>
            </g>
        </g>
    </g>
</svg>
