<svg xmlns="http://www.w3.org/2000/svg" width="381" height="72"><path d="M763.359 246.301s-406.972-10.559-557.812-66.317c-131.18-48.457-169.43-57.921-169.43-57.921L1.137 557.824S232.488 673.707 424.52 679.887c192.019 6.191 382.925-150.114 382.925-150.114l-44.086-283.472" style="fill:#0e1b8e;fill-opacity:1;fill-rule:evenodd;stroke:#1f4fa2;stroke-width:2.16;stroke-linecap:butt;stroke-linejoin:miter;stroke-miterlimit:10;stroke-dasharray:none;stroke-opacity:1" transform="matrix(.1057 0 0 -.1057 0 72)"/><path d="M387.352 204.77c152.66-25.887 355.242 65.222 355.242 65.222l29.16 186.547s-188.383-59.754-355.262-28.781c-114.762 21.129-154.476 81.605-154.476 81.605l-33.887-196.746 1.086 5.844s24.062-91.109 158.137-113.691" style="fill:#fff;fill-opacity:1;fill-rule:evenodd;stroke:none" transform="matrix(.1057 0 0 -.1057 0 72)"/><path d="M387.352 204.77c-134.075 22.582-158.137 113.691-158.137 113.691l-1.086-5.844-32.434-188.742S240.875 0 389.539 0c208.41 0 326.102 94.012 326.102 94.012l26.953 175.98s-202.582-91.109-355.242-65.222" style="fill:#d2091e;fill-opacity:1;fill-rule:evenodd;stroke:none" transform="matrix(.1057 0 0 -.1057 0 72)"/><path d="m51.05 277.27 33.157 6.207 19.316 56.824 10.922-44.071 53.922 4.735-21.133-57.578v-63.762l-29.515 51.383-22.594-52.473-6.555 51.746zM130.477 425.93l22.593-4.371 13.118 40.445 16.394-37.527 26.594 13.484-10.926-39.359 6.918-53.196-30.965 39.711-28.793-36.789 7.289 48.094zM41.215 510.465l32.062 2.183 22.227 32.434 5.469-32.805 20.039 3.661-20.407-24.426 1.086-42.266-23.304 30.969-18.594-41.527-3.637 42.261zM209.176 596.086l20.402-1.449 1.824 33.148 25.141-29.512 32.805-.367-11.664-26.601.722-45.543-26.234 39.355-13.109-37.168-5.469 40.438zM341.078 584.789l26.231 3.652 10.574 44.45 29.148-45.914 48.817-5.106-21.125-40.074-4.739-64.484-33.168 61.566-24.039-52.828-2.918 62.668zM497.387 582.242l25.492 7.289 13.129 38.981 8.015-32.422 39.723 3.637-15.683-42.262v-46.996l-21.497 37.523-16.753-38.625-4.747 38.25zM632.551 535.965l22.23-4.375 14.578 44.086 14.204-41.524 26.968 13.477-11.301-38.625 6.934-52.469-30.25 38.988-28.777-36.433 8.375 43.723z" style="fill:#fff;fill-opacity:1;fill-rule:evenodd;stroke:none" transform="matrix(.1057 0 0 -.1057 0 72)"/><path d="M956.504 10.602h-6.316v658.871h6.316z" style="fill:#0e1b8e;fill-opacity:1;fill-rule:evenodd;stroke:none" transform="matrix(.1057 0 0 -.1057 0 72)"/><path d="M2663.68 231.039v69.438l54.54-69.438h29.35v113.555h-29.35v-69.43l-54.54 69.43h-29.51V231.039Zm-73.93 0h31.48L2578 344.594h-32.23l-43.21-113.555h31.47l6.78 19.731h42.16zm-41.12 42.168 13.27 37.809 13.24-37.809zm-56.61 68.895c-4.81 2.011-9.42 3.492-13.8 4.433a61.5 61.5 0 0 1-13.31 1.442c-7.93 0-15.52-1.489-22.75-4.446-7.23-2.961-13.57-7.074-19.04-12.343-5.48-5.27-9.84-11.551-13.1-18.829-3.27-7.289-4.9-15.289-4.9-24.031 0-8.726 1.65-16.789 4.97-24.164 3.31-7.391 7.7-13.754 13.18-19.133 5.48-5.375 11.8-9.539 18.98-12.492 7.17-2.961 14.68-4.434 22.52-4.434 3.8 0 7.67.364 11.58 1.122q5.88 1.137 12.66 3.535l3.01 1.062v34.934c-7.53-8.039-16.01-12.047-25.45-12.047-4.32 0-8.34.805-12.05 2.406a30.5 30.5 0 0 0-9.72 6.625c-2.75 2.817-4.92 6.125-6.47 9.946-1.56 3.804-2.34 7.972-2.34 12.488 0 4.422.78 8.543 2.34 12.351 1.55 3.825 3.69 7.106 6.39 9.875q4.08 4.131 9.72 6.539c3.77 1.61 7.86 2.418 12.28 2.418 10.03 0 18.48-4.164 25.3-12.492zm-135.09-111.063h29.5v113.555h-29.5zm-48.04 46.535c8.14 1.91 14.28 5.551 18.46 10.922 4.16 5.371 6.25 12.379 6.25 21.004 0 4.824-.8 9.34-2.34 13.559-1.56 4.207-3.87 7.929-6.92 11.148-3.07 3.207-6.96 5.746-11.68 7.602-4.72 1.859-10.23 2.785-16.57 2.785h-45.94V231.039h29.53v43.688l28.17-43.688h36.73zm-29.21 44.27h5.58c5.83 0 10.28-1.192 13.4-3.606 3.11-2.406 4.66-5.863 4.66-10.39 0-4.524-1.55-7.985-4.66-10.379-3.12-2.418-7.57-3.617-13.4-3.617h-5.58zm-50.75 22.75h-64.61V231.039h64.61v25.008h-35.08v19.57h33.12v25.004h-33.12v18.981h35.08zm-196.22-113.555 9.77 65.363 25.46-65.363h11.75l26.8 65.363 9.8-65.363h29.36l-19.27 113.555h-29.22l-22.6-60.535-22.73 60.535h-29.21l-19.29-113.555zm-79.04 0h41.5l-57 149.742h-42.5l-56.99-149.742h41.5l8.94 26.02h55.6zm-54.22 55.617 17.47 49.836 17.48-49.836zm-136.43-17.48h56.99v29.98h-56.99zm-92.63 75.418h-29.53V231.039h29.53v46.84H1713v-46.84h29.51v113.555H1713v-43.821h-42.61zm-52.71-5.805c-5.62 3.004-11.5 5.301-17.63 6.852-6.13 1.55-11.99 2.336-17.6 2.336-6.03 0-11.48-.911-16.35-2.719-4.87-1.809-8.99-4.344-12.35-7.606q-5.055-4.884-7.83-11.75c-1.86-4.558-2.8-9.652-2.8-15.277 0-5.621.89-10.27 2.64-13.934 1.76-3.66 4.08-6.703 6.93-9.105 2.86-2.41 6.13-4.348 9.79-5.809a159 159 0 0 1 11.22-3.98c3.21-1.109 5.95-2.109 8.21-3.016 2.27-.902 4.09-1.883 5.5-2.941 1.4-1.043 2.4-2.211 3-3.461.61-1.25.92-2.75.92-4.426 0-2.82-1.19-5.34-3.54-7.547-2.37-2.203-5.96-3.312-10.78-3.312-4.2 0-8.48.957-12.8 2.863-4.32 1.91-8.68 4.813-13.1 8.731l-12.65-23.786c12.24-8.539 25.54-12.797 39.91-12.797 6.92 0 13.12.922 18.6 2.782 5.47 1.851 10.07 4.472 13.84 7.828 3.78 3.355 6.64 7.406 8.6 12.117 1.95 4.723 2.93 9.992 2.93 15.816 0 8.629-2.23 15.637-6.7 21.008-4.47 5.375-11.51 9.668-21.16 12.871a175 175 0 0 1-7.3 2.27q-3.69 1.048-6.63 2.473c-1.96.964-3.54 2.085-4.73 3.406-1.21 1.293-1.81 2.949-1.81 4.961 0 2.918 1.18 5.269 3.61 7.078 2.41 1.808 5.52 2.719 9.33 2.719 3.03 0 6.13-.645 9.34-1.883 3.21-1.27 6.44-3.203 9.64-5.805zm-127.4-107.75h29.51v113.555h-29.51zm-80.12 113.555V231.039h64.9v25.008h-35.39v88.547zm-139.76-80.129c3.12-7.277 7.42-13.633 12.96-19.055 5.51-5.418 12.12-9.668 19.8-12.726s16.13-4.579 25.37-4.579c9.13 0 17.57 1.52 25.31 4.579 7.73 3.058 14.38 7.308 19.95 12.726 5.56 5.422 9.91 11.778 13.02 19.055 3.12 7.273 4.67 15.137 4.67 23.582 0 8.418-1.55 16.273-4.67 23.551-3.11 7.281-7.46 13.632-13.02 19.062-5.57 5.414-12.22 9.656-19.95 12.715-7.74 3.059-16.18 4.602-25.31 4.602-9.24 0-17.69-1.543-25.37-4.602s-14.29-7.301-19.8-12.715c-5.54-5.43-9.84-11.781-12.96-19.062-3.11-7.278-4.66-15.133-4.66-23.551 0-8.445 1.55-16.309 4.66-23.582m28.76 36.062q2.565 5.736 6.93 9.942c2.92 2.812 6.3 5.004 10.17 6.554 3.87 1.547 7.96 2.336 12.27 2.336 4.32 0 8.42-.789 12.29-2.336a32.1 32.1 0 0 0 10.23-6.554q4.44-4.206 6.99-9.942c1.72-3.808 2.57-7.976 2.57-12.48 0-4.531-.85-8.699-2.57-12.516-1.7-3.824-4.03-7.125-6.99-9.941-2.96-2.801-6.37-4.988-10.23-6.543-3.87-1.559-7.97-2.336-12.29-2.336q-6.465-.001-12.27 2.336c-3.87 1.555-7.25 3.742-10.17 6.543-2.91 2.816-5.22 6.117-6.93 9.941-1.7 3.817-2.56 7.985-2.56 12.516 0 4.504.86 8.672 2.56 12.48m-120.23-19.843h23.03c16.82 0 29.69 4.379 38.64 13.117 8.93 8.73 13.4 21.047 13.4 36.926 0 15.902-4.47 28.203-13.4 36.945-8.95 8.746-21.82 13.109-38.64 13.109H1140V231.039h38.93zM3044.9 24.762v69.414l54.52-69.414h29.37V138.32h-29.37V68.883l-54.52 69.437h-29.51V24.762Zm-169.27 33.43c3.11-7.301 7.44-13.645 12.96-19.051 5.52-5.43 12.11-9.668 19.8-12.743q11.52-4.588 25.38-4.59c9.12 0 17.56 1.532 25.29 4.59 7.73 3.075 14.38 7.313 19.95 12.743 5.57 5.406 9.92 11.75 13.02 19.05 3.13 7.278 4.68 15.114 4.68 23.563 0 8.43-1.55 16.277-4.68 23.57-3.1 7.266-7.45 13.625-13.02 19.035q-8.355 8.133-19.95 12.727c-7.73 3.07-16.17 4.594-25.29 4.594-9.24 0-17.7-1.524-25.38-4.594-7.69-3.063-14.28-7.305-19.8-12.727-5.52-5.41-9.85-11.769-12.96-19.035-3.11-7.293-4.67-15.14-4.67-23.57 0-8.45 1.56-16.285 4.67-23.563m28.77 36.062c1.7 3.8 4.02 7.125 6.92 9.934 2.92 2.808 6.3 4.996 10.17 6.55 3.87 1.571 7.96 2.332 12.28 2.332 4.31 0 8.4-.761 12.27-2.332 3.86-1.554 7.28-3.742 10.23-6.55 2.97-2.809 5.29-6.133 7.01-9.934 1.7-3.832 2.55-7.985 2.55-12.5 0-4.52-.85-8.692-2.55-12.504-1.72-3.805-4.04-7.129-7.01-9.934-2.95-2.812-6.37-4.996-10.23-6.566-3.87-1.55-7.96-2.32-12.27-2.32-4.32 0-8.41.77-12.28 2.32-3.87 1.57-7.25 3.754-10.17 6.566-2.9 2.805-5.22 6.13-6.92 9.934-1.71 3.812-2.57 7.984-2.57 12.504 0 4.515.86 8.668 2.57 12.5m-81.63-69.492h29.52v113.547h-29.52zm-13.09 88.551h-24.25V24.762h-29.51v88.551h-24.26v25.007h78.02zM2702.9 24.762h31.48l-43.23 113.558h-32.23L2615.7 24.762h31.48l6.78 19.722h42.17zm-41.11 42.16 13.25 37.808 13.26-37.808zM2513 24.762h43.66c7.85 0 15.15 1.566 21.93 4.672 6.77 3.097 12.7 7.265 17.77 12.496 5.06 5.218 9.03 11.27 11.9 18.136 2.85 6.88 4.28 14.036 4.28 21.477 0 7.516-1.45 14.715-4.35 21.605-2.92 6.879-6.92 12.903-11.98 18.071-5.07 5.168-11 9.316-17.77 12.414-6.79 3.121-14.04 4.687-21.78 4.687H2513Zm29.52 88.551h6.78c5.01 0 9.53-.805 13.55-2.411 4-1.617 7.39-3.824 10.16-6.632 2.77-2.805 4.9-6.168 6.4-10.094 1.51-3.914 2.27-8.121 2.27-12.633 0-4.625-.74-8.856-2.19-12.727-1.45-3.875-3.57-7.214-6.33-10.02-2.76-2.808-6.15-5.015-10.16-6.62-4.01-1.63-8.59-2.422-13.7-2.422h-6.78zm-137.19-88.551v69.414l54.52-69.414h29.36V138.32h-29.36V68.883l-54.52 69.437h-29.54V24.762ZM2253.07 138.32V72.5c0-17.68 4.06-30.57 12.2-38.695 8.13-8.14 20.57-12.211 37.35-12.211 16.77 0 29.19 4.07 37.27 12.21 8.07 8.126 12.12 21.016 12.12 38.696v65.82h-29.36V76.574c0-3.32-.13-6.707-.39-10.18-.25-3.456-1.02-6.593-2.33-9.413-1.3-2.805-3.29-5.075-5.94-6.848-2.66-1.754-6.46-2.645-11.37-2.645-4.94 0-8.74.89-11.45 2.645-2.71 1.773-4.7 4.043-5.95 6.848-1.26 2.82-2.01 5.957-2.26 9.414-.25 3.472-.38 6.859-.38 10.18v61.745Zm-139.75-80.129c3.11-7.3 7.43-13.644 12.95-19.05 5.52-5.43 12.12-9.668 19.8-12.743q11.52-4.588 25.38-4.59c9.14 0 17.56 1.532 25.29 4.59 7.73 3.075 14.38 7.313 19.97 12.743 5.55 5.406 9.9 11.75 13.02 19.05 3.11 7.278 4.67 15.114 4.67 23.563 0 8.43-1.56 16.277-4.67 23.57-3.12 7.266-7.47 13.625-13.02 19.035-5.59 5.422-12.24 9.664-19.97 12.727-7.73 3.07-16.15 4.594-25.29 4.594-9.24 0-17.7-1.524-25.38-4.594q-11.52-4.594-19.8-12.727c-5.52-5.41-9.84-11.769-12.95-19.035-3.12-7.293-4.67-15.14-4.67-23.57 0-8.45 1.55-16.285 4.67-23.563m28.76 36.063c1.71 3.8 4.01 7.125 6.93 9.934 2.91 2.808 6.28 4.996 10.15 6.55 3.88 1.571 7.97 2.332 12.29 2.332 4.31 0 8.4-.761 12.27-2.332 3.87-1.554 7.28-3.742 10.24-6.55 2.97-2.809 5.3-6.133 7-9.934 1.7-3.832 2.57-7.985 2.57-12.5 0-4.52-.87-8.692-2.57-12.504-1.7-3.805-4.03-7.129-7-9.934-2.96-2.812-6.37-4.996-10.24-6.566-3.87-1.55-7.96-2.32-12.27-2.32-4.32 0-8.41.77-12.29 2.32-3.87 1.57-7.24 3.754-10.15 6.566-2.92 2.805-5.22 6.13-6.93 9.934-1.71 3.813-2.56 7.984-2.56 12.504 0 4.515.85 8.668 2.56 12.5m-47.75 80.238h-85.8V24.762h38.92v58.773h42.7V116.5h-42.7v25.035h46.88zM1805.6 24.762l9.79 65.351 25.44-65.351h11.76l26.8 65.351 9.8-65.351h29.36l-19.28 113.558h-29.21l-22.59-60.558-22.75 60.558h-29.2l-19.29-113.558Zm-164 33.43c3.12-7.301 7.43-13.645 12.96-19.051 5.52-5.43 12.11-9.668 19.79-12.743 7.68-3.058 16.15-4.59 25.39-4.59q13.695.002 25.29 4.59c7.73 3.075 14.39 7.313 19.96 12.743 5.57 5.406 9.91 11.75 13.03 19.05 3.1 7.278 4.66 15.114 4.66 23.563 0 8.43-1.56 16.277-4.66 23.57-3.12 7.266-7.46 13.625-13.03 19.035-5.57 5.422-12.23 9.664-19.96 12.727-7.73 3.07-16.16 4.594-25.29 4.594-9.24 0-17.71-1.524-25.39-4.594-7.68-3.063-14.27-7.305-19.79-12.727-5.53-5.41-9.84-11.769-12.96-19.035-3.12-7.293-4.67-15.14-4.67-23.57 0-8.45 1.55-16.285 4.67-23.563m28.76 36.062c1.7 3.8 4.02 7.125 6.94 9.934 2.9 2.808 6.29 4.996 10.15 6.55 3.87 1.571 7.96 2.332 12.29 2.332 4.31 0 8.4-.761 12.26-2.332a32.3 32.3 0 0 0 10.25-6.55c2.96-2.809 5.29-6.133 7-9.934 1.7-3.832 2.57-7.985 2.57-12.5 0-4.52-.87-8.692-2.57-12.504-1.71-3.805-4.04-7.129-7-9.934-2.97-2.812-6.38-4.996-10.25-6.566-3.86-1.55-7.95-2.32-12.26-2.32-4.33 0-8.42.77-12.29 2.32-3.86 1.57-7.25 3.754-10.15 6.566-2.92 2.805-5.24 6.13-6.94 9.934-1.71 3.812-2.55 7.984-2.55 12.504 0 4.515.84 8.668 2.55 12.5m-146.67-69.492h43.67c7.83 0 15.14 1.566 21.91 4.672 6.77 3.097 12.7 7.265 17.76 12.496 5.09 5.218 9.04 11.27 11.91 18.136a55.4 55.4 0 0 1 4.29 21.477c0 7.516-1.45 14.715-4.37 21.605-2.91 6.879-6.9 12.903-11.96 18.071-5.08 5.168-11.01 9.316-17.78 12.414-6.77 3.121-14.02 4.687-21.76 4.687h-43.67zm29.51 88.551h6.79c5.01 0 9.52-.805 13.54-2.411 4.02-1.617 7.4-3.824 10.17-6.632 2.75-2.805 4.89-6.168 6.41-10.094 1.5-3.914 2.24-8.121 2.24-12.633 0-4.625-.72-8.856-2.18-12.727-1.45-3.875-3.57-7.214-6.33-10.02-2.76-2.808-6.14-5.015-10.15-6.62-4.03-1.63-8.59-2.422-13.7-2.422h-6.79zm-50.75 25.007h-64.6V24.762h64.6v24.992h-35.09v19.594h33.13v24.976h-33.13v18.989h35.09zm-85.84 0h-64.6V24.762h64.6v24.992h-35.08v19.594h33.13v24.976h-33.13v18.989h35.08zm-112.63-67.015c8.12 1.898 14.27 5.543 18.45 10.91 4.15 5.375 6.23 12.363 6.23 21.008 0 4.82-.77 9.34-2.32 13.547-1.57 4.218-3.87 7.945-6.94 11.136-3.05 3.235-6.95 5.75-11.66 7.617-4.73 1.852-10.25 2.797-16.58 2.797h-45.92V24.762h29.51v43.676l28.16-43.676h36.75zm-29.23 44.273h5.57c5.82 0 10.3-1.223 13.41-3.613 3.11-2.43 4.67-5.887 4.67-10.418 0-4.488-1.56-7.961-4.67-10.367-3.11-2.422-7.59-3.618-13.41-3.618h-5.57zm-48.96 58.914h-85.78V24.762h38.91v58.773h42.71V116.5h-42.71v25.035h46.87zm-46.86 174.91h12.91c14.29 0 21.44-6.226 21.44-18.675 0-12.442-7.15-18.657-21.44-18.657h-12.91zM1630.91 575.441c0-46.597-13.56-70.804-39.12-70.804-24.65 0-39.58 26.476-39.58 70.351 0 44.332 14.93 71.032 39.12 71.032 25.57 0 39.58-24.668 39.58-70.579m14.71-.226c0 53.84-21.04 83.918-53.83 83.918-33.03 0-54.06-30.539-54.06-83.918s21.49-83.688 53.6-83.688c33.48 0 54.29 29.852 54.29 83.688m-144.99.226c0-46.597-13.57-70.804-39.12-70.804-24.66 0-39.59 26.476-39.59 70.351 0 44.332 14.93 71.032 39.13 71.032 25.56 0 39.58-24.668 39.58-70.579m14.71-.226c0 53.84-21.04 83.918-53.83 83.918-33.03 0-54.07-30.539-54.07-83.918s21.49-83.688 53.61-83.688c33.48 0 54.29 29.852 54.29 83.688m-144.99.226c0-46.597-13.57-70.804-39.13-70.804-24.65 0-39.58 26.476-39.58 70.351 0 44.332 14.93 71.032 39.12 71.032 25.56 0 39.59-24.668 39.59-70.579m603.8 0c0-46.597-13.57-70.804-39.13-70.804-24.64 0-39.58 26.476-39.58 70.351 0 44.332 14.94 71.032 39.13 71.032 25.56 0 39.58-24.668 39.58-70.579m-118.25 37.508c0 27.621-20.19 46.18-51.28 46.18-32.28 0-52.47-19.496-52.47-51.059v-1.613h14.87v.691c0 24.133 14.39 38.528 35.97 38.528 22.04 0 36.65-13.922 36.65-33.653 0-24.14-22.04-45.023-55.23-81.234l-35.72-39.219h106.51v13.004h-75.9l36.44 38.985c23.68 25.523 40.16 42.242 40.16 69.39m-123.94-34.554h-49.44v-14.622h49.44zm-484.74 34.554c0 27.621-20.19 46.18-51.28 46.18-32.26 0-52.46-19.496-52.46-51.059v-1.613h14.86v.691c0 24.133 14.39 38.528 35.97 38.528 22.04 0 36.66-13.922 36.66-33.653 0-24.14-22.04-45.023-55.23-81.234l-35.73-39.219h106.52v13.004h-75.9l36.44 38.985c23.68 25.523 40.15 42.242 40.15 69.39m741.64-37.734c0 53.84-21.04 83.918-53.84 83.918-33.01 0-54.05-30.539-54.05-83.918s21.49-83.688 53.6-83.688c33.48 0 54.29 29.852 54.29 83.688m-603.81 0c0 53.84-21.04 83.918-53.83 83.918-33.03 0-54.07-30.539-54.07-83.918s21.5-83.688 53.61-83.688c33.48 0 54.29 29.852 54.29 83.688" style="fill:#0e1b8e;fill-opacity:1;fill-rule:evenodd;stroke:none" transform="matrix(.1057 0 0 -.1057 0 72)"/><path d="M2270.2 653.863v-33.441h-63.14l-3.31-21.035c3.42.761 6.88 1.332 10.35 1.676 3.41.386 6.83.574 10.17.574 16.94 0 30.31-4.965 40.1-14.926 9.79-9.965 14.69-23.481 14.69-40.547 0-18.211-6.11-32.566-18.26-43.062-12.21-10.5-28.91-15.766-50.09-15.766-10.11 0-19.5 1.105-28.25 3.359-8.74 2.211-16.39 5.461-23 9.735l3 39.59 3.53-.688c4.08-6.031 9.56-10.805 16.39-14.277 6.8-3.477 14.19-5.192 22.08-5.192 10.52 0 18.68 2.481 24.44 7.446 5.78 4.961 8.66 11.945 8.66 20.957 0 8.664-3.11 15.769-9.32 21.261-6.22 5.539-14.31 8.289-24.26 8.289-6.68 0-12.7-1.109-18.1-3.285-5.36-2.215-10.22-5.539-14.53-10.039l-5.6 3.242 13.76 86.129zm671.45-94.023c12 2.797 21.08 8.18 27.23 16.098 6.15 7.929 9.23 18.265 9.23 31.011 0 7.114-1.15 13.785-3.45 20-2.31 6.227-5.69 11.703-10.23 16.449-4.52 4.743-10.26 8.477-17.22 11.219-6.97 2.742-15.12 4.117-24.45 4.117h-67.79V491.152h43.56v64.45l41.58-64.45h54.21zm-43.12 65.328h8.23c8.59 0 15.18-1.77 19.79-5.332 4.58-3.551 6.88-8.668 6.88-15.332s-2.3-11.785-6.88-15.336c-4.61-3.559-11.2-5.332-19.79-5.332h-8.23zm-109.11-134.016h46.44l-63.79 167.582h-47.55l-63.8-167.582h46.46l10 29.11h62.23zm-60.67 62.239 19.54 55.785 19.57-55.785zm-83.35 105.343h-95.35V491.152h95.35v36.895h-51.78v28.898h48.89v36.895h-48.89v28.008h51.78zm476.49-10.121a114.6 114.6 0 0 1-25.99 10.114c-9.05 2.289-17.71 3.449-26 3.449-8.9 0-16.93-1.328-24.12-4.008-7.19-2.664-13.26-6.398-18.21-11.215-4.99-4.824-8.83-10.605-11.58-17.34-2.74-6.75-4.12-14.269-4.12-22.562s1.31-15.153 3.89-20.555c2.6-5.414 6.01-9.902 10.23-13.445 4.24-3.551 9.05-6.41 14.45-8.555a249 249 0 0 1 16.55-5.894c4.75-1.637 8.79-3.118 12.13-4.442 3.33-1.34 6.04-2.773 8.1-4.328 2.08-1.559 3.56-3.269 4.45-5.121.88-1.856 1.33-4.039 1.33-6.555 0-4.148-1.72-7.859-5.22-11.105-3.48-3.258-8.78-4.891-15.89-4.891-6.22 0-12.52 1.399-18.89 4.215-6.37 2.82-12.82 7.117-19.32 12.887l-18.7-35.106c18.09-12.597 37.73-18.89 58.91-18.89 10.22 0 19.36 1.363 27.44 4.105 8.07 2.738 14.91 6.598 20.45 11.563 5.55 4.953 9.79 10.914 12.67 17.886 2.89 6.965 4.33 14.75 4.33 23.336 0 12.739-3.3 23.074-9.87 31.008-6.6 7.918-17.01 14.246-31.24 19a252 252 0 0 1-10.79 3.336c-3.61 1.039-6.89 2.25-9.76 3.668-2.9 1.402-5.23 3.062-7.01 4.996-1.78 1.93-2.66 4.375-2.66 7.336 0 4.293 1.76 7.777 5.33 10.441 3.56 2.668 8.15 4.012 13.78 4.012 4.45 0 9.04-.941 13.77-2.785 4.75-1.852 9.49-4.711 14.24-8.551zM2429.8 491.152h43.58v80.457l61.33 87.125h-52l-30.89-45.785-31.12 45.785h-52.01l61.11-87.125zm-295.12.536h-127.32l74.83 87.003c4.54 5.309 7.89 10.082 10.06 14.395 2.14 4.277 3.23 8.285 3.23 11.984 0 5.766-1.83 10.426-5.52 14.055-3.69 3.621-8.51 5.418-14.49 5.418-7.15 0-12.63-2.254-16.44-6.719-3.84-4.469-5.75-10.957-5.75-19.429v-2.028h-40.09v1.11c0 18.554 5.52 33.179 16.55 43.828 11.07 10.648 26.15 15.996 45.26 15.996q28.035 0 44.64-14.203c11.08-9.469 16.64-22.067 16.64-37.793 0-7.672-1.76-15.117-5.25-22.41-3.5-7.258-9.25-15.2-17.33-23.864l-30.04-32.527h51.02z" style="fill:#d2091e;fill-opacity:1;fill-rule:evenodd;stroke:none" transform="matrix(.1057 0 0 -.1057 0 72)"/></svg>